<svg width="60" height="60" viewBox="0 0 60 60" fill="none" xmlns="http://www.w3.org/2000/svg">
<rect width="60" height="60" rx="5" fill="#E9ECF2"/>
<path d="M40.5 25.6244C40.5 24.5744 39.8881 23.6114 38.925 23.2619C39.5369 22.4744 39.6256 21.3375 39.1005 20.3744C38.5755 19.4114 37.5255 18.975 36.5625 19.0619C36.6494 18.0989 36.213 17.0489 35.25 16.5239C34.2869 15.9989 33.2369 16.0858 32.3625 16.6994C32.013 15.738 31.05 15.1244 30 15.1244C28.95 15.1244 27.9869 15.7364 27.6375 16.6994C26.763 16.0875 25.713 16.0005 24.75 16.5255C23.7869 17.0505 23.3505 18.1005 23.4375 19.0636C22.4744 18.9766 21.4244 19.413 20.8994 20.3761C20.3744 21.3391 20.4614 22.3891 21.075 23.2636C20.2005 23.7016 19.5 24.5761 19.5 25.6261C19.5 26.6761 20.1119 27.6391 21.075 27.9886C20.463 28.7761 20.3744 29.913 20.8994 30.8761C21.4244 31.8391 22.4744 32.2755 23.4375 32.1886C23.3505 33.1516 23.7869 34.2016 24.75 34.7266C24.75 34.7266 24.8369 34.7266 24.8369 34.8136L22.2119 43.2136L25.5375 41.463L27.2881 44.7886L30 36.1261H30.0869H30.1739L32.8858 44.8755L34.6364 41.55L37.962 43.3005L35.25 34.8136C35.25 34.8136 35.337 34.8136 35.337 34.7266C36.3 34.2016 36.7364 33.1516 36.6495 32.1886C37.6125 32.2755 38.6625 31.8391 39.1875 30.8761C39.7125 29.913 39.6256 28.863 39.012 27.9886C39.8881 27.6375 40.5 26.6744 40.5 25.6244L40.5 25.6244ZM30 31.7506C26.5875 31.7506 23.8756 29.0386 23.8756 25.6261C23.8756 22.2136 26.5875 19.5017 30 19.5017C33.4125 19.5017 36.1244 22.2136 36.1244 25.6261C36.1244 29.037 33.4125 31.7506 30 31.7506Z" fill="black"/>
</svg>
