<svg width="60" height="60" viewBox="0 0 60 60" fill="none" xmlns="http://www.w3.org/2000/svg">
<rect width="60" height="60" rx="5" fill="#E9ECF2"/>
<path d="M30 22.125C26.1494 22.125 22.9994 25.275 22.9994 29.1256C22.9994 30.7006 23.5244 32.1 24.3989 33.2386C24.3989 33.2386 24.6614 33.5881 24.7483 33.6767C25.5358 34.6397 27.4603 37.3517 27.4603 39.6272H32.7103C32.7103 37.3517 34.6347 34.6397 35.4222 33.6767C35.5092 33.5897 35.7717 33.2386 35.7717 33.2386C36.6461 32.1017 37.1711 30.6136 37.1711 29.1256C37.0005 25.275 33.8505 22.125 30 22.125H30Z" fill="black"/>
<path d="M27.375 41.3745H32.625V44.8739H27.375V41.3745Z" fill="black"/>
<path d="M16.0006 28.2495H21.2506V30H16.0006V28.2495Z" fill="black"/>
<path d="M38.7494 28.2495H43.9994V30H38.7494V28.2495Z" fill="black"/>
<path d="M39.2908 18.6058L40.5278 19.8429L36.8151 23.5556L35.5781 22.3186L39.2908 18.6058Z" fill="black"/>
<path d="M29.1256 15.1245H30.8761V20.3744H29.1256V15.1245Z" fill="black"/>
<path d="M20.7188 18.5978L24.4316 22.3106L23.1945 23.5476L19.4818 19.8349L20.7188 18.5978Z" fill="black"/>
</svg>
