<svg width="60" height="60" viewBox="0 0 60 60" fill="none" xmlns="http://www.w3.org/2000/svg">
<path d="M48.375 40.6242L43.875 33.75V33.6257L51.2508 29.9999L43.875 26.3741V26.2499L48.375 19.3757L40.125 19.8749L40.6242 11.6249L33.75 16.1249H33.6258L30 8.74915L26.3742 16.1249H26.25L19.3758 11.6249L19.875 19.8749L11.625 19.3757L16.125 26.2499V26.3741L8.7492 29.9999L16.125 33.6257V33.75L11.625 40.6242L19.875 40.1249L19.3758 48.3749L26.25 43.8749H26.3742L30 51.2507L33.6258 43.8749H33.75L40.6242 48.3749L40.125 40.1249L48.375 40.6242ZM30 40.0007C24.4992 40.0007 19.9992 35.5007 19.9992 29.9999C19.9992 24.4991 24.4992 19.9991 30 19.9991C35.5008 19.9991 40.0008 24.4991 40.0008 29.9999C40.0008 35.5007 35.5008 40.0007 30 40.0007Z" fill="#F57059"/>
<path d="M30 22.5C25.875 22.5 22.5 25.875 22.5 30C22.5 34.125 25.875 37.5 30 37.5C34.125 37.5 37.5 34.125 37.5 30C37.5 25.875 34.125 22.5 30 22.5Z" fill="#F57059"/>
</svg>
